%
M48
M72
T01C0.0197
T02C0.0236
T03C0.0320
T04C0.0400
%
T01
X6851Y7251
X7351Y7251
X7951Y7251
X6851Y9051
T02
X2951Y2151
X3751Y2151
X3351Y4551
X1751Y6151
X3351Y7751
X4951Y6151
X3751Y10151
X2951Y10151
T03
X9051Y3651
X10051Y3651
T04
X7651Y1651
X6651Y1651
X5651Y1651
X4651Y1651
X4651Y10651
X5651Y10651
X6651Y10651
X7651Y10651
M30
