G75*
G70*
%OFA0B0*%
%FSLAX24Y24*%
%IPPOS*%
%LPD*%
%AMOC8*
5,1,8,0,0,1.08239X$1,22.5*
%
%ADD10C,0.0100*%
%ADD11C,0.0060*%
D10*
X006151Y000151D02*
X006436Y000158D01*
X006721Y000178D01*
X007005Y000212D01*
X007287Y000259D01*
X007566Y000320D01*
X007841Y000394D01*
X008113Y000481D01*
X008381Y000581D01*
X008643Y000693D01*
X008900Y000818D01*
X009151Y000955D01*
X009395Y001103D01*
X009631Y001264D01*
X009860Y001435D01*
X010080Y001617D01*
X010291Y001809D01*
X010493Y002011D01*
X010685Y002222D01*
X010867Y002442D01*
X011038Y002671D01*
X011199Y002907D01*
X011347Y003151D01*
X011484Y003402D01*
X011609Y003659D01*
X011721Y003921D01*
X011821Y004189D01*
X011908Y004461D01*
X011982Y004736D01*
X012043Y005015D01*
X012090Y005297D01*
X012124Y005581D01*
X012144Y005866D01*
X012151Y006151D01*
X006151Y000151D02*
X005866Y000158D01*
X005581Y000178D01*
X005297Y000212D01*
X005015Y000259D01*
X004736Y000320D01*
X004461Y000394D01*
X004189Y000481D01*
X003921Y000581D01*
X003659Y000693D01*
X003402Y000818D01*
X003151Y000955D01*
X002907Y001103D01*
X002671Y001264D01*
X002442Y001435D01*
X002222Y001617D01*
X002011Y001809D01*
X001809Y002011D01*
X001617Y002222D01*
X001435Y002442D01*
X001264Y002671D01*
X001103Y002907D01*
X000955Y003151D01*
X000818Y003402D01*
X000693Y003659D01*
X000581Y003921D01*
X000481Y004189D01*
X000394Y004461D01*
X000320Y004736D01*
X000259Y005015D01*
X000212Y005297D01*
X000178Y005581D01*
X000158Y005866D01*
X000151Y006151D01*
X000158Y006436D01*
X000178Y006721D01*
X000212Y007005D01*
X000259Y007287D01*
X000320Y007566D01*
X000394Y007841D01*
X000481Y008113D01*
X000581Y008381D01*
X000693Y008643D01*
X000818Y008900D01*
X000955Y009151D01*
X001103Y009395D01*
X001264Y009631D01*
X001435Y009860D01*
X001617Y010080D01*
X001809Y010291D01*
X002011Y010493D01*
X002222Y010685D01*
X002442Y010867D01*
X002671Y011038D01*
X002907Y011199D01*
X003151Y011347D01*
X003402Y011484D01*
X003659Y011609D01*
X003921Y011721D01*
X004189Y011821D01*
X004461Y011908D01*
X004736Y011982D01*
X005015Y012043D01*
X005297Y012090D01*
X005581Y012124D01*
X005866Y012144D01*
X006151Y012151D01*
X006436Y012144D01*
X006721Y012124D01*
X007005Y012090D01*
X007287Y012043D01*
X007566Y011982D01*
X007841Y011908D01*
X008113Y011821D01*
X008381Y011721D01*
X008643Y011609D01*
X008900Y011484D01*
X009151Y011347D01*
X009395Y011199D01*
X009631Y011038D01*
X009860Y010867D01*
X010080Y010685D01*
X010291Y010493D01*
X010493Y010291D01*
X010685Y010080D01*
X010867Y009860D01*
X011038Y009631D01*
X011199Y009395D01*
X011347Y009151D01*
X011484Y008900D01*
X011609Y008643D01*
X011721Y008381D01*
X011821Y008113D01*
X011908Y007841D01*
X011982Y007566D01*
X012043Y007287D01*
X012090Y007005D01*
X012124Y006721D01*
X012144Y006436D01*
X012151Y006151D01*
D11*
X004401Y001151D02*
X004151Y001401D01*
X004151Y001901D01*
X004401Y002151D01*
X004901Y002151D01*
X005151Y001901D01*
X005401Y002151D01*
X005901Y002151D01*
X006151Y001901D01*
X006151Y001401D01*
X005901Y001151D01*
X005401Y001151D01*
X005151Y001401D01*
X005151Y001901D01*
X005151Y001401D02*
X004901Y001151D01*
X004401Y001151D01*
X006151Y001401D02*
X006401Y001151D01*
X006901Y001151D01*
X007151Y001401D01*
X007401Y001151D01*
X007901Y001151D01*
X008151Y001401D01*
X008151Y001901D01*
X007901Y002151D01*
X007401Y002151D01*
X007151Y001901D01*
X006901Y002151D01*
X006401Y002151D01*
X006151Y001901D01*
X007151Y001901D02*
X007151Y001401D01*
X006471Y004331D02*
X006131Y004331D01*
X006131Y004501D01*
X006188Y004558D01*
X006415Y004558D01*
X006471Y004501D01*
X006471Y004331D01*
X006415Y004699D02*
X006358Y004699D01*
X006301Y004756D01*
X006301Y004870D01*
X006245Y004926D01*
X006188Y004926D01*
X006131Y004870D01*
X006131Y004756D01*
X006188Y004699D01*
X006415Y004699D02*
X006471Y004756D01*
X006471Y004870D01*
X006415Y004926D01*
X006358Y005068D02*
X006471Y005181D01*
X006131Y005181D01*
X006131Y005068D02*
X006131Y005295D01*
X006188Y005436D02*
X006131Y005493D01*
X006131Y005606D01*
X006188Y005663D01*
X006245Y005663D01*
X006301Y005606D01*
X006301Y005550D01*
X006301Y005606D02*
X006358Y005663D01*
X006415Y005663D01*
X006471Y005606D01*
X006471Y005493D01*
X006415Y005436D01*
X006415Y005804D02*
X006188Y005804D01*
X006415Y006031D01*
X006188Y006031D01*
X006131Y005975D01*
X006131Y005861D01*
X006188Y005804D01*
X006415Y005804D02*
X006471Y005861D01*
X006471Y005975D01*
X006415Y006031D01*
X006471Y006173D02*
X006471Y006400D01*
X006415Y006400D01*
X006188Y006173D01*
X006131Y006173D01*
X006131Y006541D02*
X006131Y006768D01*
X006131Y006541D02*
X006188Y006541D01*
X006415Y006768D01*
X006471Y006768D01*
X006471Y006541D01*
X005851Y007631D02*
X005851Y007858D01*
X005681Y007801D02*
X006021Y007801D01*
X005851Y007631D01*
X005795Y007999D02*
X006021Y008226D01*
X006021Y007999D02*
X005681Y007999D01*
X005851Y008056D02*
X005681Y008226D01*
X005681Y008368D02*
X005738Y008368D01*
X005965Y008595D01*
X006021Y008595D01*
X006021Y008368D01*
X006231Y008931D02*
X006571Y008931D01*
X006571Y009101D01*
X006515Y009158D01*
X006401Y009158D01*
X006345Y009101D01*
X006345Y008931D01*
X006345Y009045D02*
X006231Y009158D01*
X006231Y009299D02*
X006458Y009526D01*
X006515Y009526D01*
X006571Y009470D01*
X006571Y009356D01*
X006515Y009299D01*
X006231Y009299D02*
X006231Y009526D01*
X006401Y010151D02*
X006901Y010151D01*
X007151Y010401D01*
X007401Y010151D01*
X007901Y010151D01*
X008151Y010401D01*
X008151Y010901D01*
X007901Y011151D01*
X007401Y011151D01*
X007151Y010901D01*
X006901Y011151D01*
X006401Y011151D01*
X006151Y010901D01*
X006151Y010401D01*
X006401Y010151D01*
X006151Y010401D02*
X005901Y010151D01*
X005401Y010151D01*
X005151Y010401D01*
X004901Y010151D01*
X004401Y010151D01*
X004151Y010401D01*
X004151Y010901D01*
X004401Y011151D01*
X004901Y011151D01*
X005151Y010901D01*
X005151Y010401D01*
X005151Y010901D02*
X005401Y011151D01*
X005901Y011151D01*
X006151Y010901D01*
X007151Y010901D02*
X007151Y010401D01*
X007145Y009526D02*
X007088Y009526D01*
X007031Y009470D01*
X007031Y009356D01*
X007088Y009299D01*
X007031Y009158D02*
X007145Y009045D01*
X007145Y009101D02*
X007145Y008931D01*
X007031Y008931D02*
X007371Y008931D01*
X007371Y009101D01*
X007315Y009158D01*
X007201Y009158D01*
X007145Y009101D01*
X007315Y009299D02*
X007371Y009356D01*
X007371Y009470D01*
X007315Y009526D01*
X007258Y009526D01*
X007201Y009470D01*
X007145Y009526D01*
X007201Y009470D02*
X007201Y009413D01*
X007831Y009413D02*
X008171Y009413D01*
X008058Y009299D01*
X008001Y009158D02*
X007945Y009101D01*
X007945Y008931D01*
X007945Y009045D02*
X007831Y009158D01*
X007831Y009299D02*
X007831Y009526D01*
X008001Y009158D02*
X008115Y009158D01*
X008171Y009101D01*
X008171Y008931D01*
X007831Y008931D01*
X008681Y008988D02*
X008681Y009101D01*
X008738Y009158D01*
X008681Y009299D02*
X008681Y009526D01*
X008681Y009413D02*
X009021Y009413D01*
X008908Y009299D01*
X008965Y009158D02*
X009021Y009101D01*
X009021Y008988D01*
X008965Y008931D01*
X008738Y008931D01*
X008681Y008988D01*
X009281Y008863D02*
X009451Y008863D01*
X009508Y008806D01*
X009508Y008636D01*
X009281Y008636D01*
X009338Y008495D02*
X009281Y008438D01*
X009281Y008324D01*
X009338Y008268D01*
X009565Y008495D01*
X009338Y008495D01*
X009565Y008495D02*
X009621Y008438D01*
X009621Y008324D01*
X009565Y008268D01*
X009338Y008268D01*
X009338Y008126D02*
X009281Y008070D01*
X009281Y007956D01*
X009338Y007899D01*
X009565Y008126D01*
X009338Y008126D01*
X009338Y007899D02*
X009565Y007899D01*
X009621Y007956D01*
X009621Y008070D01*
X009565Y008126D01*
X009281Y007758D02*
X009281Y007531D01*
X009281Y007645D02*
X009621Y007645D01*
X009508Y007531D01*
X011081Y007485D02*
X011081Y007314D01*
X011138Y007258D01*
X011364Y007258D01*
X011421Y007314D01*
X011421Y007485D01*
X011081Y007485D01*
X011138Y007626D02*
X011251Y007626D01*
X011308Y007683D01*
X011308Y007853D01*
X011421Y007853D02*
X011081Y007853D01*
X011081Y007683D01*
X011138Y007626D01*
X011308Y007739D02*
X011421Y007626D01*
X011364Y007994D02*
X011138Y007994D01*
X011081Y008051D01*
X011081Y008164D01*
X011138Y008221D01*
X011364Y008221D01*
X011421Y008164D01*
X011421Y008051D01*
X011364Y007994D01*
X011421Y007116D02*
X011081Y007116D01*
X011081Y006889D01*
X011081Y006748D02*
X011081Y006578D01*
X011138Y006521D01*
X011251Y006521D01*
X011308Y006578D01*
X011308Y006748D01*
X011421Y006748D02*
X011081Y006748D01*
X011308Y006635D02*
X011421Y006521D01*
X011421Y006889D02*
X011421Y007116D01*
X011251Y007116D02*
X011251Y007003D01*
X011251Y006011D02*
X011251Y005784D01*
X011081Y005841D02*
X011251Y006011D01*
X011421Y005841D02*
X011081Y005841D01*
X011081Y005643D02*
X011251Y005643D01*
X011194Y005530D01*
X011194Y005473D01*
X011251Y005416D01*
X011364Y005416D01*
X011421Y005473D01*
X011421Y005586D01*
X011364Y005643D01*
X011081Y005643D02*
X011081Y005416D01*
X011138Y005275D02*
X011081Y005218D01*
X011081Y005105D01*
X011138Y005048D01*
X011194Y005048D01*
X011251Y005105D01*
X011308Y005048D01*
X011364Y005048D01*
X011421Y005105D01*
X011421Y005218D01*
X011364Y005275D01*
X011251Y005161D02*
X011251Y005105D01*
X011194Y004906D02*
X011081Y004793D01*
X011421Y004793D01*
X011421Y004906D02*
X011421Y004680D01*
X011421Y004538D02*
X011194Y004311D01*
X011138Y004311D01*
X011081Y004368D01*
X011081Y004481D01*
X011138Y004538D01*
X011421Y004538D02*
X011421Y004311D01*
X009171Y005031D02*
X009171Y005145D01*
X009171Y005088D02*
X008831Y005088D01*
X008831Y005031D02*
X008831Y005145D01*
X008888Y005277D02*
X008831Y005333D01*
X008831Y005447D01*
X008888Y005504D01*
X008831Y005645D02*
X008831Y005872D01*
X008831Y005758D02*
X009171Y005758D01*
X009058Y005645D01*
X009115Y005504D02*
X009171Y005447D01*
X009171Y005333D01*
X009115Y005277D01*
X008888Y005277D01*
M02*
