G75*
G70*
%OFA0B0*%
%FSLAX24Y24*%
%IPPOS*%
%LPD*%
%AMOC8*
5,1,8,0,0,1.08239X$1,22.5*
%
%ADD10C,0.0100*%
%ADD11C,0.0600*%
%ADD12R,0.0236X0.0866*%
%ADD13R,0.0394X0.0433*%
%ADD14C,0.0520*%
%ADD15C,0.0120*%
%ADD16C,0.0160*%
%ADD17R,0.0396X0.0396*%
%ADD18C,0.0396*%
%ADD19C,0.0357*%
D10*
X002092Y002092D02*
X001556Y002711D01*
X001113Y003400D01*
X000773Y004145D01*
X000542Y004931D01*
X000426Y005742D01*
X000411Y006151D01*
X000411Y006151D01*
X000426Y006561D01*
X000542Y007371D01*
X000773Y008157D01*
X001113Y008902D01*
X001556Y009591D01*
X002092Y010210D01*
X002711Y010746D01*
X003400Y011189D01*
X004145Y011529D01*
X004931Y011760D01*
X005742Y011877D01*
X006151Y011891D01*
X006561Y011877D01*
X007371Y011760D01*
X008157Y011529D01*
X008902Y011189D01*
X009591Y010746D01*
X010210Y010210D01*
X010746Y009591D01*
X011189Y008902D01*
X011529Y008157D01*
X011760Y007371D01*
X011877Y006561D01*
X011891Y006151D01*
X011877Y005742D01*
X011760Y004931D01*
X011529Y004145D01*
X011189Y003400D01*
X010746Y002711D01*
X010210Y002092D01*
X009591Y001556D01*
X008902Y001113D01*
X008157Y000773D01*
X007371Y000542D01*
X006561Y000426D01*
X006151Y000411D01*
X005742Y000426D01*
X004931Y000542D01*
X004145Y000773D01*
X003400Y001113D01*
X002711Y001556D01*
X002092Y002092D01*
X002067Y002122D02*
X002543Y002122D01*
X002543Y002024D02*
X002172Y002024D01*
X002286Y001925D02*
X002543Y001925D01*
X002543Y001866D02*
X002666Y001743D01*
X003236Y001743D01*
X003351Y001858D01*
X003466Y001743D01*
X004036Y001743D01*
X004141Y001848D01*
X004141Y001250D01*
X004219Y001062D01*
X004362Y000919D01*
X004550Y000841D01*
X004753Y000841D01*
X004940Y000919D01*
X005084Y001062D01*
X005151Y001226D01*
X005219Y001062D01*
X005362Y000919D01*
X005550Y000841D01*
X005753Y000841D01*
X005940Y000919D01*
X006084Y001062D01*
X006151Y001226D01*
X006219Y001062D01*
X006362Y000919D01*
X006550Y000841D01*
X006753Y000841D01*
X006940Y000919D01*
X007084Y001062D01*
X007151Y001226D01*
X007219Y001062D01*
X007362Y000919D01*
X007550Y000841D01*
X007753Y000841D01*
X007940Y000919D01*
X008084Y001062D01*
X008161Y001250D01*
X008161Y002053D01*
X008084Y002240D01*
X007940Y002384D01*
X007753Y002461D01*
X007550Y002461D01*
X007362Y002384D01*
X007219Y002240D01*
X007151Y002077D01*
X007084Y002240D01*
X006940Y002384D01*
X006753Y002461D01*
X006550Y002461D01*
X006362Y002384D01*
X006219Y002240D01*
X006151Y002077D01*
X006084Y002240D01*
X005962Y002361D01*
X006209Y002361D01*
X006315Y002405D01*
X006397Y002487D01*
X007403Y003493D01*
X007405Y003487D01*
X007487Y003405D01*
X007593Y003361D01*
X007644Y003361D01*
X008164Y002841D01*
X008338Y002841D01*
X010338Y002841D01*
X010461Y002964D01*
X010861Y003364D01*
X010861Y003538D01*
X010861Y003938D01*
X010738Y004061D01*
X010561Y004238D01*
X010561Y006938D01*
X010438Y007061D01*
X010238Y007261D01*
X010064Y007261D01*
X008864Y007261D01*
X008741Y007138D01*
X008741Y007390D01*
X009135Y007390D01*
X009258Y007513D01*
X009258Y008120D01*
X009180Y008198D01*
X009188Y008211D01*
X009198Y008250D01*
X009198Y008437D01*
X008900Y008437D01*
X008900Y008534D01*
X009198Y008534D01*
X009198Y008722D01*
X009188Y008760D01*
X009168Y008794D01*
X009140Y008822D01*
X009106Y008842D01*
X009068Y008852D01*
X008900Y008852D01*
X008900Y008534D01*
X008803Y008534D01*
X008802Y008534D02*
X008802Y008437D01*
X008510Y008437D01*
X008458Y008489D01*
X008458Y008789D01*
X008335Y008912D01*
X007767Y008912D01*
X007651Y008796D01*
X007535Y008912D01*
X007214Y008912D01*
X007240Y008974D01*
X007240Y009029D01*
X007897Y009687D01*
X007941Y009793D01*
X007941Y009909D01*
X007941Y009920D01*
X008084Y010062D01*
X008161Y010250D01*
X008161Y011053D01*
X008084Y011240D01*
X007940Y011384D01*
X007753Y011461D01*
X007550Y011461D01*
X007362Y011384D01*
X007219Y011240D01*
X007151Y011077D01*
X007084Y011240D01*
X006940Y011384D01*
X006753Y011461D01*
X006550Y011461D01*
X006362Y011384D01*
X006219Y011240D01*
X006151Y011077D01*
X006084Y011240D01*
X005940Y011384D01*
X005753Y011461D01*
X005550Y011461D01*
X005362Y011384D01*
X005219Y011240D01*
X005141Y011053D01*
X005141Y010250D01*
X005219Y010062D01*
X005362Y009919D01*
X005398Y009904D01*
X005405Y009887D01*
X006161Y009131D01*
X006161Y008906D01*
X006044Y008789D01*
X006044Y008182D01*
X006075Y008151D01*
X006044Y008120D01*
X006044Y007513D01*
X006167Y007390D01*
X006369Y007390D01*
X006463Y007272D01*
X006463Y007174D01*
X006522Y007031D01*
X006573Y006980D01*
X006573Y005955D01*
X006696Y005832D01*
X007106Y005832D01*
X007151Y005877D01*
X007196Y005832D01*
X007606Y005832D01*
X007651Y005877D01*
X007696Y005832D01*
X008106Y005832D01*
X008151Y005877D01*
X008196Y005832D01*
X008541Y005832D01*
X008541Y005561D01*
X006664Y005561D01*
X006541Y005438D01*
X006541Y005264D01*
X006664Y005141D01*
X008564Y005141D01*
X008738Y005141D01*
X008838Y005241D01*
X008961Y005364D01*
X008961Y006764D01*
X009038Y006841D01*
X010064Y006841D01*
X010141Y006764D01*
X010141Y004238D01*
X010141Y004121D01*
X009991Y004121D01*
X009439Y004673D01*
X009332Y004718D01*
X009217Y004718D01*
X008729Y004718D01*
X008729Y004948D01*
X008606Y005071D01*
X008196Y005071D01*
X008151Y005026D01*
X008106Y005071D01*
X007842Y005071D01*
X007815Y005097D01*
X007709Y005141D01*
X007593Y005141D01*
X007487Y005097D01*
X007460Y005071D01*
X007196Y005071D01*
X007187Y005061D01*
X007164Y005061D01*
X007094Y004991D01*
X007077Y005000D01*
X007039Y005011D01*
X006910Y005011D01*
X006910Y004437D01*
X006892Y004437D01*
X006892Y005011D01*
X006763Y005011D01*
X006725Y005000D01*
X006691Y004981D01*
X006663Y004953D01*
X006643Y004919D01*
X006633Y004880D01*
X006633Y004437D01*
X006892Y004437D01*
X006892Y004418D01*
X006910Y004418D01*
X006910Y003844D01*
X006934Y003844D01*
X006031Y002941D01*
X005009Y002941D01*
X004893Y002941D01*
X004787Y002897D01*
X004487Y002597D01*
X004405Y002515D01*
X004361Y002409D01*
X004361Y002382D01*
X004219Y002240D01*
X004159Y002096D01*
X004159Y002436D01*
X004041Y002554D01*
X004041Y003931D01*
X004115Y004005D01*
X004197Y004087D01*
X004241Y004193D01*
X004241Y007993D01*
X004241Y008109D01*
X004197Y008215D01*
X004041Y008371D01*
X004041Y009748D01*
X004159Y009866D01*
X004159Y010436D01*
X004036Y010559D01*
X003466Y010559D01*
X003351Y010444D01*
X003236Y010559D01*
X002666Y010559D01*
X002543Y010436D01*
X002543Y009866D01*
X002666Y009743D01*
X003236Y009743D01*
X003351Y009858D01*
X003461Y009748D01*
X003461Y008193D01*
X003505Y008087D01*
X003587Y008005D01*
X003661Y007931D01*
X003661Y004371D01*
X003505Y004215D01*
X003461Y004109D01*
X003461Y003993D01*
X003461Y002554D01*
X003351Y002444D01*
X003236Y002559D01*
X002666Y002559D01*
X002543Y002436D01*
X002543Y001866D01*
X002583Y001826D02*
X002399Y001826D01*
X002513Y001728D02*
X004141Y001728D01*
X004141Y001826D02*
X004120Y001826D01*
X004141Y001629D02*
X002627Y001629D01*
X002751Y001531D02*
X004141Y001531D01*
X004141Y001432D02*
X002904Y001432D01*
X003057Y001334D02*
X004141Y001334D01*
X004147Y001235D02*
X003211Y001235D01*
X003364Y001137D02*
X004188Y001137D01*
X004243Y001038D02*
X003565Y001038D01*
X003400Y001113D02*
X003400Y001113D01*
X003781Y000940D02*
X004342Y000940D01*
X004250Y000742D02*
X008053Y000742D01*
X007961Y000940D02*
X008522Y000940D01*
X008737Y001038D02*
X008059Y001038D01*
X008114Y001137D02*
X008938Y001137D01*
X009092Y001235D02*
X008155Y001235D01*
X008161Y001334D02*
X009245Y001334D01*
X009398Y001432D02*
X008161Y001432D01*
X008161Y001531D02*
X009552Y001531D01*
X009676Y001629D02*
X008161Y001629D01*
X008161Y001728D02*
X009789Y001728D01*
X009903Y001826D02*
X008161Y001826D01*
X008161Y001925D02*
X010017Y001925D01*
X010131Y002024D02*
X008161Y002024D01*
X008132Y002122D02*
X010236Y002122D01*
X010321Y002221D02*
X008092Y002221D01*
X008004Y002319D02*
X010406Y002319D01*
X010492Y002418D02*
X007858Y002418D01*
X007445Y002418D02*
X006858Y002418D01*
X007004Y002319D02*
X007298Y002319D01*
X007211Y002221D02*
X007092Y002221D01*
X007132Y002122D02*
X007170Y002122D01*
X006623Y002713D02*
X010748Y002713D01*
X010811Y002812D02*
X006722Y002812D01*
X006820Y002910D02*
X008095Y002910D01*
X007996Y003009D02*
X006919Y003009D01*
X007018Y003107D02*
X007898Y003107D01*
X007799Y003206D02*
X007116Y003206D01*
X007215Y003305D02*
X007701Y003305D01*
X007492Y003403D02*
X007313Y003403D01*
X006887Y003797D02*
X004041Y003797D01*
X004041Y003699D02*
X006789Y003699D01*
X006690Y003600D02*
X004041Y003600D01*
X004041Y003502D02*
X006592Y003502D01*
X006493Y003403D02*
X004041Y003403D01*
X004041Y003305D02*
X006394Y003305D01*
X006296Y003206D02*
X004041Y003206D01*
X004041Y003107D02*
X006197Y003107D01*
X006099Y003009D02*
X004041Y003009D01*
X004041Y002910D02*
X004819Y002910D01*
X004702Y002812D02*
X004041Y002812D01*
X004041Y002713D02*
X004603Y002713D01*
X004505Y002615D02*
X004041Y002615D01*
X004079Y002516D02*
X004406Y002516D01*
X004365Y002418D02*
X004159Y002418D01*
X004159Y002319D02*
X004298Y002319D01*
X004211Y002221D02*
X004159Y002221D01*
X004159Y002122D02*
X004170Y002122D01*
X003461Y002615D02*
X001640Y002615D01*
X001555Y002713D02*
X003461Y002713D01*
X003461Y002812D02*
X001491Y002812D01*
X001428Y002910D02*
X003461Y002910D01*
X003461Y003009D02*
X001365Y003009D01*
X001301Y003107D02*
X003461Y003107D01*
X003461Y003206D02*
X001238Y003206D01*
X001175Y003305D02*
X003461Y003305D01*
X003461Y003403D02*
X001112Y003403D01*
X001067Y003502D02*
X003461Y003502D01*
X003461Y003600D02*
X001022Y003600D01*
X000977Y003699D02*
X003461Y003699D01*
X003461Y003797D02*
X000932Y003797D01*
X000887Y003896D02*
X002034Y003896D01*
X002054Y003875D02*
X002152Y003832D01*
X002259Y003830D01*
X002359Y003869D01*
X002396Y003904D01*
X002428Y003872D01*
X002527Y003831D01*
X002635Y003831D01*
X002885Y003831D01*
X002984Y003872D01*
X003060Y003948D01*
X003180Y004068D01*
X003221Y004167D01*
X003221Y004275D01*
X003221Y004645D01*
X003219Y004651D01*
X003221Y004657D01*
X003221Y004897D01*
X003221Y005005D01*
X003180Y005104D01*
X003013Y005271D01*
X003094Y005352D01*
X003170Y005428D01*
X003211Y005527D01*
X003211Y005767D01*
X003211Y005875D01*
X003170Y005974D01*
X003043Y006101D01*
X003160Y006218D01*
X003201Y006317D01*
X003201Y006425D01*
X003201Y006665D01*
X003160Y006764D01*
X003084Y006840D01*
X002977Y006947D01*
X003160Y007131D01*
X003201Y007230D01*
X003201Y007337D01*
X003160Y007437D01*
X003084Y007513D01*
X002985Y007554D01*
X002977Y007554D01*
X002871Y007554D01*
X002964Y007592D01*
X003094Y007722D01*
X003170Y007798D01*
X003211Y007897D01*
X003211Y008137D01*
X003211Y008245D01*
X003170Y008344D01*
X002974Y008540D01*
X002875Y008581D01*
X002767Y008581D01*
X002743Y008581D01*
X002742Y008582D01*
X002688Y008581D01*
X002637Y008581D01*
X002636Y008581D01*
X002635Y008581D01*
X002585Y008559D01*
X002538Y008540D01*
X002537Y008539D01*
X002536Y008538D01*
X002498Y008500D01*
X002462Y008464D01*
X002462Y008463D01*
X002448Y008448D01*
X002440Y008467D01*
X002364Y008543D01*
X002265Y008584D01*
X002157Y008584D01*
X002058Y008543D01*
X001982Y008467D01*
X001941Y008367D01*
X001941Y007873D01*
X001941Y007872D01*
X001941Y007818D01*
X001941Y007775D01*
X001942Y007774D01*
X001942Y007765D01*
X001981Y007673D01*
X001941Y007577D01*
X001941Y006985D01*
X001982Y006886D01*
X002043Y006825D01*
X001982Y006764D01*
X001941Y006665D01*
X001941Y006557D01*
X001941Y006425D01*
X001941Y006317D01*
X001982Y006218D01*
X002044Y006156D01*
X001982Y006094D01*
X001941Y005995D01*
X001941Y005503D01*
X001941Y005502D01*
X001941Y005448D01*
X001941Y005397D01*
X001942Y005396D01*
X001942Y005395D01*
X001963Y005345D01*
X001982Y005298D01*
X001983Y005297D01*
X001984Y005296D01*
X002022Y005258D01*
X002058Y005222D01*
X002060Y005222D01*
X002061Y005221D01*
X002084Y005211D01*
X002063Y005192D01*
X002058Y005190D01*
X002024Y005156D01*
X001989Y005123D01*
X001986Y005118D01*
X001982Y005114D01*
X001964Y005069D01*
X001944Y005026D01*
X001943Y005020D01*
X001941Y005015D01*
X001941Y004967D01*
X001939Y004918D01*
X001941Y004913D01*
X001941Y004765D01*
X001941Y004657D01*
X001944Y004651D01*
X001941Y004645D01*
X001941Y004537D01*
X001982Y004438D01*
X002058Y004362D01*
X002083Y004352D01*
X001985Y004259D01*
X001942Y004160D01*
X001940Y004053D01*
X001979Y003953D01*
X002054Y003875D01*
X001963Y003994D02*
X000842Y003994D01*
X000797Y004093D02*
X001941Y004093D01*
X001956Y004191D02*
X000760Y004191D01*
X000731Y004290D02*
X002018Y004290D01*
X002032Y004389D02*
X000702Y004389D01*
X000673Y004487D02*
X001962Y004487D01*
X001941Y004586D02*
X000644Y004586D01*
X000615Y004684D02*
X001941Y004684D01*
X001941Y004783D02*
X000586Y004783D01*
X000557Y004881D02*
X001941Y004881D01*
X001941Y004980D02*
X000535Y004980D01*
X000521Y005078D02*
X001968Y005078D01*
X002045Y005177D02*
X000507Y005177D01*
X000493Y005275D02*
X002005Y005275D01*
X001951Y005374D02*
X000479Y005374D01*
X000464Y005473D02*
X001941Y005473D01*
X001941Y005571D02*
X000450Y005571D01*
X000436Y005670D02*
X001941Y005670D01*
X001941Y005768D02*
X000425Y005768D01*
X000421Y005867D02*
X001941Y005867D01*
X001941Y005965D02*
X000418Y005965D01*
X000414Y006064D02*
X001970Y006064D01*
X002038Y006162D02*
X000412Y006162D01*
X000415Y006261D02*
X001965Y006261D01*
X001941Y006359D02*
X000419Y006359D01*
X000422Y006458D02*
X001941Y006458D01*
X001941Y006556D02*
X000426Y006556D01*
X000439Y006655D02*
X001941Y006655D01*
X001978Y006754D02*
X000453Y006754D01*
X000468Y006852D02*
X002016Y006852D01*
X001955Y006951D02*
X000482Y006951D01*
X000496Y007049D02*
X001941Y007049D01*
X001941Y007148D02*
X000510Y007148D01*
X000524Y007246D02*
X001941Y007246D01*
X001941Y007345D02*
X000539Y007345D01*
X000563Y007443D02*
X001941Y007443D01*
X001941Y007542D02*
X000592Y007542D01*
X000621Y007640D02*
X001967Y007640D01*
X001953Y007739D02*
X000650Y007739D01*
X000679Y007838D02*
X001941Y007838D01*
X001941Y007936D02*
X000708Y007936D01*
X000737Y008035D02*
X001941Y008035D01*
X001941Y008133D02*
X000766Y008133D01*
X000807Y008232D02*
X001941Y008232D01*
X001941Y008330D02*
X000852Y008330D01*
X000897Y008429D02*
X001967Y008429D01*
X002043Y008527D02*
X000942Y008527D01*
X000987Y008626D02*
X003461Y008626D01*
X003461Y008724D02*
X001032Y008724D01*
X001077Y008823D02*
X003461Y008823D01*
X003461Y008922D02*
X001126Y008922D01*
X001189Y009020D02*
X003461Y009020D01*
X003461Y009119D02*
X001252Y009119D01*
X001316Y009217D02*
X003461Y009217D01*
X003461Y009316D02*
X001379Y009316D01*
X001442Y009414D02*
X003461Y009414D01*
X003461Y009513D02*
X001506Y009513D01*
X001574Y009611D02*
X003461Y009611D01*
X003461Y009710D02*
X001659Y009710D01*
X001744Y009808D02*
X002601Y009808D01*
X002543Y009907D02*
X001830Y009907D01*
X001915Y010006D02*
X002543Y010006D01*
X002543Y010104D02*
X002001Y010104D01*
X002086Y010203D02*
X002543Y010203D01*
X002543Y010301D02*
X002198Y010301D01*
X002311Y010400D02*
X002543Y010400D01*
X002605Y010498D02*
X002425Y010498D01*
X002539Y010597D02*
X004201Y010597D01*
X004201Y010601D02*
X004201Y010316D01*
X004212Y010246D01*
X004234Y010178D01*
X004266Y010115D01*
X004308Y010058D01*
X004358Y010008D01*
X004415Y009966D01*
X004478Y009934D01*
X004546Y009912D01*
X004601Y009903D01*
X004601Y010601D01*
X004701Y010601D01*
X004701Y009903D01*
X004757Y009912D01*
X004824Y009934D01*
X004887Y009966D01*
X004944Y010008D01*
X004994Y010058D01*
X005036Y010115D01*
X005068Y010178D01*
X005090Y010246D01*
X005101Y010316D01*
X005101Y010601D01*
X004701Y010601D01*
X004701Y010701D01*
X005101Y010701D01*
X005101Y010987D01*
X005090Y011057D01*
X005068Y011124D01*
X005036Y011187D01*
X004994Y011244D01*
X004944Y011294D01*
X004887Y011336D01*
X004824Y011368D01*
X004757Y011390D01*
X004701Y011399D01*
X004701Y010701D01*
X004601Y010701D01*
X004601Y010601D01*
X004201Y010601D01*
X004201Y010701D02*
X004601Y010701D01*
X004601Y011399D01*
X004546Y011390D01*
X004478Y011368D01*
X004415Y011336D01*
X004358Y011294D01*
X004308Y011244D01*
X004266Y011187D01*
X004234Y011124D01*
X004212Y011057D01*
X004201Y010987D01*
X004201Y010701D01*
X004201Y010794D02*
X002785Y010794D01*
X002652Y010695D02*
X004601Y010695D01*
X004601Y010597D02*
X004701Y010597D01*
X004701Y010695D02*
X005141Y010695D01*
X005141Y010597D02*
X005101Y010597D01*
X005101Y010498D02*
X005141Y010498D01*
X005141Y010400D02*
X005101Y010400D01*
X005099Y010301D02*
X005141Y010301D01*
X005161Y010203D02*
X005076Y010203D01*
X005028Y010104D02*
X005201Y010104D01*
X005276Y010006D02*
X004941Y010006D01*
X004723Y009907D02*
X005391Y009907D01*
X005484Y009808D02*
X004102Y009808D01*
X004159Y009907D02*
X004579Y009907D01*
X004601Y009907D02*
X004701Y009907D01*
X004701Y010006D02*
X004601Y010006D01*
X004601Y010104D02*
X004701Y010104D01*
X004701Y010203D02*
X004601Y010203D01*
X004601Y010301D02*
X004701Y010301D01*
X004701Y010400D02*
X004601Y010400D01*
X004601Y010498D02*
X004701Y010498D01*
X004701Y010794D02*
X004601Y010794D01*
X004601Y010892D02*
X004701Y010892D01*
X004701Y010991D02*
X004601Y010991D01*
X004601Y011089D02*
X004701Y011089D01*
X004701Y011188D02*
X004601Y011188D01*
X004601Y011287D02*
X004701Y011287D01*
X004701Y011385D02*
X004601Y011385D01*
X004531Y011385D02*
X003830Y011385D01*
X004045Y011484D02*
X008257Y011484D01*
X008473Y011385D02*
X007936Y011385D01*
X008037Y011287D02*
X008689Y011287D01*
X008904Y011188D02*
X008105Y011188D01*
X008146Y011089D02*
X009057Y011089D01*
X009210Y010991D02*
X008161Y010991D01*
X008161Y010892D02*
X009364Y010892D01*
X009517Y010794D02*
X008161Y010794D01*
X008161Y010695D02*
X009650Y010695D01*
X009764Y010597D02*
X008161Y010597D01*
X008161Y010498D02*
X009877Y010498D01*
X009991Y010400D02*
X008161Y010400D01*
X008161Y010301D02*
X010105Y010301D01*
X010216Y010203D02*
X008142Y010203D01*
X008101Y010104D02*
X010302Y010104D01*
X010387Y010006D02*
X008027Y010006D01*
X007941Y009907D02*
X010473Y009907D01*
X010558Y009808D02*
X007941Y009808D01*
X007906Y009710D02*
X010643Y009710D01*
X010729Y009611D02*
X007821Y009611D01*
X007723Y009513D02*
X010797Y009513D01*
X010860Y009414D02*
X007624Y009414D01*
X007526Y009316D02*
X010923Y009316D01*
X010987Y009217D02*
X007427Y009217D01*
X007329Y009119D02*
X011050Y009119D01*
X011113Y009020D02*
X007240Y009020D01*
X007218Y008922D02*
X011176Y008922D01*
X011225Y008823D02*
X009139Y008823D01*
X009197Y008724D02*
X011270Y008724D01*
X011315Y008626D02*
X009198Y008626D01*
X009198Y008429D02*
X011405Y008429D01*
X011360Y008527D02*
X008900Y008527D01*
X008802Y008527D02*
X008458Y008527D01*
X008504Y008534D02*
X008504Y008722D01*
X008515Y008760D01*
X008534Y008794D01*
X008562Y008822D01*
X008596Y008842D01*
X008635Y008852D01*
X008803Y008852D01*
X008803Y008534D01*
X008802Y008534D02*
X008504Y008534D01*
X008504Y008626D02*
X008458Y008626D01*
X008458Y008724D02*
X008505Y008724D01*
X008563Y008823D02*
X008424Y008823D01*
X008803Y008823D02*
X008900Y008823D01*
X008900Y008724D02*
X008803Y008724D01*
X008803Y008626D02*
X008900Y008626D01*
X009198Y008330D02*
X011450Y008330D01*
X011495Y008232D02*
X009193Y008232D01*
X009245Y008133D02*
X011536Y008133D01*
X011565Y008035D02*
X009258Y008035D01*
X009258Y007936D02*
X011594Y007936D01*
X011623Y007838D02*
X009258Y007838D01*
X009258Y007739D02*
X011652Y007739D01*
X011681Y007640D02*
X009258Y007640D01*
X009258Y007542D02*
X011710Y007542D01*
X011739Y007443D02*
X009188Y007443D01*
X008849Y007246D02*
X008741Y007246D01*
X008741Y007148D02*
X008751Y007148D01*
X008741Y007138D02*
X008741Y007138D01*
X008741Y007345D02*
X011764Y007345D01*
X011778Y007246D02*
X010253Y007246D01*
X010352Y007148D02*
X011792Y007148D01*
X011806Y007049D02*
X010450Y007049D01*
X010549Y006951D02*
X011820Y006951D01*
X011835Y006852D02*
X010561Y006852D01*
X010561Y006754D02*
X011849Y006754D01*
X011863Y006655D02*
X010561Y006655D01*
X010561Y006556D02*
X011877Y006556D01*
X011880Y006458D02*
X010561Y006458D01*
X010561Y006359D02*
X011884Y006359D01*
X011887Y006261D02*
X010561Y006261D01*
X010561Y006162D02*
X011891Y006162D01*
X011891Y006151D02*
X011891Y006151D01*
X011888Y006064D02*
X010561Y006064D01*
X010561Y005965D02*
X011885Y005965D01*
X011881Y005867D02*
X010561Y005867D01*
X010561Y005768D02*
X011878Y005768D01*
X011866Y005670D02*
X010561Y005670D01*
X010561Y005571D02*
X011852Y005571D01*
X011838Y005473D02*
X010561Y005473D01*
X010561Y005374D02*
X011824Y005374D01*
X011810Y005275D02*
X010561Y005275D01*
X010561Y005177D02*
X011795Y005177D01*
X011781Y005078D02*
X010561Y005078D01*
X010561Y004980D02*
X011767Y004980D01*
X011745Y004881D02*
X010561Y004881D01*
X010561Y004783D02*
X011716Y004783D01*
X011688Y004684D02*
X010561Y004684D01*
X010561Y004586D02*
X011659Y004586D01*
X011630Y004487D02*
X010561Y004487D01*
X010561Y004389D02*
X011601Y004389D01*
X011572Y004290D02*
X010561Y004290D01*
X010608Y004191D02*
X011543Y004191D01*
X011505Y004093D02*
X010706Y004093D01*
X010805Y003994D02*
X011460Y003994D01*
X011415Y003896D02*
X010861Y003896D01*
X010861Y003797D02*
X011370Y003797D01*
X011325Y003699D02*
X010861Y003699D01*
X010861Y003600D02*
X011280Y003600D01*
X011235Y003502D02*
X010861Y003502D01*
X010861Y003403D02*
X011190Y003403D01*
X011128Y003305D02*
X010802Y003305D01*
X010703Y003206D02*
X011064Y003206D01*
X011001Y003107D02*
X010604Y003107D01*
X010506Y003009D02*
X010938Y003009D01*
X010874Y002910D02*
X010407Y002910D01*
X010663Y002615D02*
X006525Y002615D01*
X006426Y002516D02*
X010577Y002516D01*
X010141Y004191D02*
X009921Y004191D01*
X009822Y004290D02*
X010141Y004290D01*
X010141Y004389D02*
X009724Y004389D01*
X009625Y004487D02*
X010141Y004487D01*
X010141Y004586D02*
X009527Y004586D01*
X009413Y004684D02*
X010141Y004684D01*
X010141Y004783D02*
X008729Y004783D01*
X008729Y004881D02*
X010141Y004881D01*
X010141Y004980D02*
X008697Y004980D01*
X008774Y005177D02*
X010141Y005177D01*
X010141Y005275D02*
X008872Y005275D01*
X008961Y005374D02*
X010141Y005374D01*
X010141Y005473D02*
X008961Y005473D01*
X008961Y005571D02*
X010141Y005571D01*
X010141Y005670D02*
X008961Y005670D01*
X008961Y005768D02*
X010141Y005768D01*
X010141Y005867D02*
X008961Y005867D01*
X008961Y005965D02*
X010141Y005965D01*
X010141Y006064D02*
X008961Y006064D01*
X008961Y006162D02*
X010141Y006162D01*
X010141Y006261D02*
X008961Y006261D01*
X008961Y006359D02*
X010141Y006359D01*
X010141Y006458D02*
X008961Y006458D01*
X008961Y006556D02*
X010141Y006556D01*
X010141Y006655D02*
X008961Y006655D01*
X008961Y006754D02*
X010141Y006754D01*
X010141Y005078D02*
X007834Y005078D01*
X007468Y005078D02*
X004241Y005078D01*
X004241Y004980D02*
X006690Y004980D01*
X006633Y004881D02*
X004241Y004881D01*
X004241Y004783D02*
X006633Y004783D01*
X006633Y004684D02*
X004241Y004684D01*
X004241Y004586D02*
X006633Y004586D01*
X006633Y004487D02*
X004241Y004487D01*
X004241Y004389D02*
X006633Y004389D01*
X006633Y004418D02*
X006633Y003975D01*
X006643Y003937D01*
X006663Y003902D01*
X006691Y003874D01*
X006725Y003855D01*
X006763Y003844D01*
X006892Y003844D01*
X006892Y004418D01*
X006633Y004418D01*
X006633Y004290D02*
X004241Y004290D01*
X004240Y004191D02*
X006633Y004191D01*
X006633Y004093D02*
X004199Y004093D01*
X004104Y003994D02*
X006633Y003994D01*
X006670Y003896D02*
X004041Y003896D01*
X003580Y004290D02*
X003221Y004290D01*
X003221Y004191D02*
X003495Y004191D01*
X003461Y004093D02*
X003190Y004093D01*
X003106Y003994D02*
X003461Y003994D01*
X003461Y003896D02*
X003008Y003896D01*
X003221Y004389D02*
X003661Y004389D01*
X003661Y004487D02*
X003221Y004487D01*
X003221Y004586D02*
X003661Y004586D01*
X003661Y004684D02*
X003221Y004684D01*
X003221Y004783D02*
X003661Y004783D01*
X003661Y004881D02*
X003221Y004881D01*
X003221Y004980D02*
X003661Y004980D01*
X003661Y005078D02*
X003191Y005078D01*
X003107Y005177D02*
X003661Y005177D01*
X003661Y005275D02*
X003017Y005275D01*
X003116Y005374D02*
X003661Y005374D01*
X003661Y005473D02*
X003188Y005473D01*
X003211Y005571D02*
X003661Y005571D01*
X003661Y005670D02*
X003211Y005670D01*
X003211Y005768D02*
X003661Y005768D01*
X003661Y005867D02*
X003211Y005867D01*
X003174Y005965D02*
X003661Y005965D01*
X003661Y006064D02*
X003080Y006064D01*
X003104Y006162D02*
X003661Y006162D01*
X003661Y006261D02*
X003178Y006261D01*
X003201Y006359D02*
X003661Y006359D01*
X003661Y006458D02*
X003201Y006458D01*
X003201Y006556D02*
X003661Y006556D01*
X003661Y006655D02*
X003201Y006655D01*
X003164Y006754D02*
X003661Y006754D01*
X003661Y006852D02*
X003072Y006852D01*
X002980Y006951D02*
X003661Y006951D01*
X003661Y007049D02*
X003079Y007049D01*
X003167Y007148D02*
X003661Y007148D01*
X003661Y007246D02*
X003201Y007246D01*
X003198Y007345D02*
X003661Y007345D01*
X003661Y007443D02*
X003153Y007443D01*
X003013Y007542D02*
X003661Y007542D01*
X003661Y007640D02*
X003012Y007640D01*
X002977Y007554D02*
X002977Y007554D01*
X003111Y007739D02*
X003661Y007739D01*
X003661Y007838D02*
X003186Y007838D01*
X003211Y007936D02*
X003656Y007936D01*
X003558Y008035D02*
X003211Y008035D01*
X003211Y008133D02*
X003486Y008133D01*
X003461Y008232D02*
X003211Y008232D01*
X003176Y008330D02*
X003461Y008330D01*
X003461Y008429D02*
X003085Y008429D01*
X002987Y008527D02*
X003461Y008527D01*
X004041Y008527D02*
X006044Y008527D01*
X006044Y008429D02*
X004041Y008429D01*
X004082Y008330D02*
X006044Y008330D01*
X006044Y008232D02*
X004181Y008232D01*
X004231Y008133D02*
X006058Y008133D01*
X006044Y008035D02*
X004241Y008035D01*
X004241Y007936D02*
X006044Y007936D01*
X006044Y007838D02*
X004241Y007838D01*
X004241Y007739D02*
X006044Y007739D01*
X006044Y007640D02*
X004241Y007640D01*
X004241Y007542D02*
X006044Y007542D01*
X006114Y007443D02*
X004241Y007443D01*
X004241Y007345D02*
X006405Y007345D01*
X006463Y007246D02*
X004241Y007246D01*
X004241Y007148D02*
X006474Y007148D01*
X006514Y007049D02*
X004241Y007049D01*
X004241Y006951D02*
X006573Y006951D01*
X006573Y006852D02*
X004241Y006852D01*
X004241Y006754D02*
X006573Y006754D01*
X006573Y006655D02*
X004241Y006655D01*
X004241Y006556D02*
X006573Y006556D01*
X006573Y006458D02*
X004241Y006458D01*
X004241Y006359D02*
X006573Y006359D01*
X006573Y006261D02*
X004241Y006261D01*
X004241Y006162D02*
X006573Y006162D01*
X006573Y006064D02*
X004241Y006064D01*
X004241Y005965D02*
X006573Y005965D01*
X006661Y005867D02*
X004241Y005867D01*
X004241Y005768D02*
X008541Y005768D01*
X008541Y005670D02*
X004241Y005670D01*
X004241Y005571D02*
X008541Y005571D01*
X008161Y005867D02*
X008141Y005867D01*
X007661Y005867D02*
X007641Y005867D01*
X007161Y005867D02*
X007141Y005867D01*
X006576Y005473D02*
X004241Y005473D01*
X004241Y005374D02*
X006541Y005374D01*
X006541Y005275D02*
X004241Y005275D01*
X004241Y005177D02*
X006628Y005177D01*
X006892Y004980D02*
X006910Y004980D01*
X006910Y004881D02*
X006892Y004881D01*
X006892Y004783D02*
X006910Y004783D01*
X006910Y004684D02*
X006892Y004684D01*
X006892Y004586D02*
X006910Y004586D01*
X006910Y004487D02*
X006892Y004487D01*
X006892Y004389D02*
X006910Y004389D01*
X006910Y004290D02*
X006892Y004290D01*
X006892Y004191D02*
X006910Y004191D01*
X006910Y004093D02*
X006892Y004093D01*
X006892Y003994D02*
X006910Y003994D01*
X006910Y003896D02*
X006892Y003896D01*
X006445Y002418D02*
X006328Y002418D01*
X006298Y002319D02*
X006004Y002319D01*
X006092Y002221D02*
X006211Y002221D01*
X006170Y002122D02*
X006132Y002122D01*
X006114Y001137D02*
X006188Y001137D01*
X006243Y001038D02*
X006059Y001038D01*
X005961Y000940D02*
X006342Y000940D01*
X006707Y000447D02*
X005595Y000447D01*
X005342Y000940D02*
X004961Y000940D01*
X005059Y001038D02*
X005243Y001038D01*
X005188Y001137D02*
X005114Y001137D01*
X004585Y000644D02*
X007717Y000644D01*
X007382Y000545D02*
X004921Y000545D01*
X003996Y000841D02*
X008306Y000841D01*
X007342Y000940D02*
X006961Y000940D01*
X007059Y001038D02*
X007243Y001038D01*
X007188Y001137D02*
X007114Y001137D01*
X003383Y001826D02*
X003320Y001826D01*
X003279Y002516D02*
X003423Y002516D01*
X002623Y002516D02*
X001725Y002516D01*
X001810Y002418D02*
X002543Y002418D01*
X002543Y002319D02*
X001896Y002319D01*
X001981Y002221D02*
X002543Y002221D01*
X002405Y003896D02*
X002387Y003896D01*
X006151Y000151D02*
X006436Y000158D01*
X006721Y000178D01*
X007005Y000212D01*
X007287Y000259D01*
X007566Y000320D01*
X007841Y000394D01*
X008113Y000481D01*
X008381Y000581D01*
X008643Y000693D01*
X008900Y000818D01*
X009151Y000955D01*
X009395Y001103D01*
X009631Y001264D01*
X009860Y001435D01*
X010080Y001617D01*
X010291Y001809D01*
X010493Y002011D01*
X010685Y002222D01*
X010867Y002442D01*
X011038Y002671D01*
X011199Y002907D01*
X011347Y003151D01*
X011484Y003402D01*
X011609Y003659D01*
X011721Y003921D01*
X011821Y004189D01*
X011908Y004461D01*
X011982Y004736D01*
X012043Y005015D01*
X012090Y005297D01*
X012124Y005581D01*
X012144Y005866D01*
X012151Y006151D01*
X007678Y008823D02*
X007624Y008823D01*
X006161Y008922D02*
X004041Y008922D01*
X004041Y009020D02*
X006161Y009020D01*
X006161Y009119D02*
X004041Y009119D01*
X004041Y009217D02*
X006075Y009217D01*
X005976Y009316D02*
X004041Y009316D01*
X004041Y009414D02*
X005878Y009414D01*
X005779Y009513D02*
X004041Y009513D01*
X004041Y009611D02*
X005681Y009611D01*
X005582Y009710D02*
X004041Y009710D01*
X004159Y010006D02*
X004361Y010006D01*
X004274Y010104D02*
X004159Y010104D01*
X004159Y010203D02*
X004226Y010203D01*
X004203Y010301D02*
X004159Y010301D01*
X004159Y010400D02*
X004201Y010400D01*
X004201Y010498D02*
X004097Y010498D01*
X004201Y010892D02*
X002939Y010892D01*
X003092Y010991D02*
X004202Y010991D01*
X004223Y011089D02*
X003245Y011089D01*
X003399Y011188D02*
X004267Y011188D01*
X004350Y011287D02*
X003614Y011287D01*
X004326Y011582D02*
X007977Y011582D01*
X007641Y011681D02*
X004661Y011681D01*
X004772Y011385D02*
X005366Y011385D01*
X005265Y011287D02*
X004952Y011287D01*
X005035Y011188D02*
X005197Y011188D01*
X005156Y011089D02*
X005079Y011089D01*
X005100Y010991D02*
X005141Y010991D01*
X005141Y010892D02*
X005101Y010892D01*
X005101Y010794D02*
X005141Y010794D01*
X005936Y011385D02*
X006366Y011385D01*
X006265Y011287D02*
X006037Y011287D01*
X006105Y011188D02*
X006197Y011188D01*
X006156Y011089D02*
X006146Y011089D01*
X005777Y011878D02*
X006525Y011878D01*
X006936Y011385D02*
X007366Y011385D01*
X007265Y011287D02*
X007037Y011287D01*
X007105Y011188D02*
X007197Y011188D01*
X007156Y011089D02*
X007146Y011089D01*
X007237Y011779D02*
X005065Y011779D01*
X003405Y010498D02*
X003297Y010498D01*
X003302Y009808D02*
X003401Y009808D01*
X004041Y008823D02*
X006078Y008823D01*
X006044Y008724D02*
X004041Y008724D01*
X004041Y008626D02*
X006044Y008626D01*
X000151Y006151D02*
X000158Y005866D01*
X000178Y005581D01*
X000212Y005297D01*
X000259Y005015D01*
X000320Y004736D01*
X000394Y004461D01*
X000481Y004189D01*
X000581Y003921D01*
X000693Y003659D01*
X000818Y003402D01*
X000955Y003151D01*
X001103Y002907D01*
X001264Y002671D01*
X001435Y002442D01*
X001617Y002222D01*
X001809Y002011D01*
X002011Y001809D01*
X002222Y001617D01*
X002442Y001435D01*
X002671Y001264D01*
X002907Y001103D01*
X003151Y000955D01*
X003402Y000818D01*
X003659Y000693D01*
X003921Y000581D01*
X004189Y000481D01*
X004461Y000394D01*
X004736Y000320D01*
X005015Y000259D01*
X005297Y000212D01*
X005581Y000178D01*
X005866Y000158D01*
X006151Y000151D01*
X000151Y006151D02*
X000158Y006436D01*
X000178Y006721D01*
X000212Y007005D01*
X000259Y007287D01*
X000320Y007566D01*
X000394Y007841D01*
X000481Y008113D01*
X000581Y008381D01*
X000693Y008643D01*
X000818Y008900D01*
X000955Y009151D01*
X001103Y009395D01*
X001264Y009631D01*
X001435Y009860D01*
X001617Y010080D01*
X001809Y010291D01*
X002011Y010493D01*
X002222Y010685D01*
X002442Y010867D01*
X002671Y011038D01*
X002907Y011199D01*
X003151Y011347D01*
X003402Y011484D01*
X003659Y011609D01*
X003921Y011721D01*
X004189Y011821D01*
X004461Y011908D01*
X004736Y011982D01*
X005015Y012043D01*
X005297Y012090D01*
X005581Y012124D01*
X005866Y012144D01*
X006151Y012151D01*
X002525Y008527D02*
X002379Y008527D01*
X006151Y012151D02*
X006436Y012144D01*
X006721Y012124D01*
X007005Y012090D01*
X007287Y012043D01*
X007566Y011982D01*
X007841Y011908D01*
X008113Y011821D01*
X008381Y011721D01*
X008643Y011609D01*
X008900Y011484D01*
X009151Y011347D01*
X009395Y011199D01*
X009631Y011038D01*
X009860Y010867D01*
X010080Y010685D01*
X010291Y010493D01*
X010493Y010291D01*
X010685Y010080D01*
X010867Y009860D01*
X011038Y009631D01*
X011199Y009395D01*
X011347Y009151D01*
X011484Y008900D01*
X011609Y008643D01*
X011721Y008381D01*
X011821Y008113D01*
X011908Y007841D01*
X011982Y007566D01*
X012043Y007287D01*
X012090Y007005D01*
X012124Y006721D01*
X012144Y006436D01*
X012151Y006151D01*
D11*
X007651Y001951D02*
X007651Y001351D01*
X006651Y001351D02*
X006651Y001951D01*
X005651Y001951D02*
X005651Y001351D01*
X004651Y001351D02*
X004651Y001951D01*
X004651Y010351D02*
X004651Y010951D01*
X005651Y010951D02*
X005651Y010351D01*
X006651Y010351D02*
X006651Y010951D01*
X007651Y010951D02*
X007651Y010351D01*
D12*
X007401Y006475D03*
X006901Y006475D03*
X007901Y006475D03*
X008401Y006475D03*
X008401Y004428D03*
X007901Y004428D03*
X007401Y004428D03*
X006901Y004428D03*
D13*
X007251Y007817D03*
X007251Y008486D03*
X006451Y008486D03*
X006451Y007817D03*
X008051Y007817D03*
X008051Y008486D03*
X008851Y008486D03*
X008851Y007817D03*
D14*
X009051Y003651D03*
X010051Y003651D03*
D15*
X002951Y004221D02*
X002831Y004101D01*
X002581Y004101D01*
X002461Y004221D01*
X002461Y004341D01*
X002211Y004101D01*
X002461Y004341D02*
X002461Y004591D01*
X002951Y004591D01*
X002951Y004221D01*
X002831Y004591D02*
X002461Y004591D01*
X002211Y004591D01*
X002211Y004711D02*
X002331Y004591D01*
X002461Y004591D01*
X002581Y004831D02*
X002581Y005081D01*
X002341Y005081D01*
X002211Y004961D01*
X002211Y004711D01*
X002831Y004591D02*
X002951Y004711D01*
X002951Y004951D01*
X002831Y005071D01*
X002811Y005451D02*
X002941Y005581D01*
X002941Y005821D01*
X002821Y005941D01*
X002811Y005941D02*
X002691Y005941D01*
X002211Y005451D01*
X002211Y005941D01*
X002331Y006251D02*
X002211Y006371D01*
X002211Y006611D01*
X002331Y006731D01*
X002811Y006731D01*
X002931Y006611D01*
X002931Y006371D01*
X002811Y006251D01*
X002331Y006251D01*
X002811Y006721D01*
X002689Y007041D02*
X002931Y007284D01*
X002924Y007284D02*
X002219Y007284D01*
X002211Y007524D02*
X002211Y007039D01*
X002211Y007821D02*
X002691Y008311D01*
X002811Y008311D01*
X002821Y008311D02*
X002941Y008191D01*
X002941Y007951D01*
X002811Y007821D01*
X002211Y007829D02*
X002211Y008314D01*
D16*
X003751Y008251D02*
X003751Y010151D01*
X003751Y008251D02*
X003951Y008051D01*
X003951Y004251D01*
X003751Y004051D01*
X003751Y002151D01*
X004651Y002351D02*
X004651Y001651D01*
X004651Y002351D02*
X004951Y002651D01*
X006151Y002651D01*
X007401Y003901D01*
X007401Y004428D01*
X007901Y004428D02*
X007901Y003901D01*
X008151Y003651D01*
X009051Y003651D01*
X009275Y004428D02*
X008401Y004428D01*
X009275Y004428D02*
X010051Y003651D01*
X008401Y006475D02*
X008401Y007001D01*
X008451Y007051D01*
X008451Y007851D01*
X008486Y007817D01*
X008851Y007817D01*
X008451Y007851D02*
X008451Y008086D01*
X008051Y008486D01*
X007251Y008486D01*
X006451Y008486D01*
X006451Y009251D01*
X005651Y010051D01*
X005651Y010651D01*
X006851Y009051D02*
X007651Y009851D01*
X007651Y010651D01*
X007251Y007817D02*
X007251Y007351D01*
X007351Y007251D01*
X007401Y007201D01*
X007401Y006475D01*
X006901Y006475D02*
X006901Y007201D01*
X006851Y007251D01*
X006451Y007751D01*
X006451Y007817D01*
X007901Y007201D02*
X007901Y006475D01*
X007901Y007201D02*
X007951Y007251D01*
X008051Y007351D01*
X008051Y007817D01*
D17*
X003751Y010151D03*
X002951Y010151D03*
X002951Y002151D03*
X003751Y002151D03*
D18*
X003351Y004551D03*
X001751Y006151D03*
X003351Y007751D03*
X004951Y006151D03*
D19*
X006851Y007251D03*
X007351Y007251D03*
X007951Y007251D03*
X006851Y009051D03*
M02*
